<svg width="128" height="129" viewBox="0 0 128 129" fill="none" xmlns="http://www.w3.org/2000/svg">
<g clip-path="url(#clip0_1607_1649)">
<path d="M2.7318 63.7281C2.7288 74.5666 5.5608 85.1496 10.9458 94.4776L2.2168 126.349L34.8328 117.797C43.854 122.708 53.9615 125.281 64.2328 125.282H64.2598C98.1673 125.282 125.769 97.6901 125.783 63.7766C125.79 47.3431 119.396 31.8901 107.779 20.2641C96.1638 8.63907 80.7163 2.23357 64.2573 2.22607C30.3458 2.22607 2.7463 29.8161 2.7323 63.7281" fill="url(#paint0_linear_1607_1649)"/>
<path d="M0.535 63.708C0.5315 74.9365 3.465 85.898 9.042 95.56L0 128.574L33.7855 119.715C43.0945 124.79 53.5755 127.466 64.2405 127.47H64.268C99.392 127.47 127.985 98.8865 128 63.759C128.006 46.735 121.382 30.7265 109.35 18.684C97.3165 6.643 81.3165 0.007 64.268 0C29.138 0 0.549 28.58 0.535 63.708ZM20.6555 93.896L19.394 91.8935C14.091 83.4615 11.292 73.7175 11.296 63.712C11.307 34.5145 35.069 10.76 64.288 10.76C78.438 10.766 91.736 16.282 101.738 26.29C111.739 36.299 117.243 49.604 117.24 63.755C117.227 92.9525 93.464 116.71 64.268 116.71H64.247C54.7405 116.705 45.417 114.152 37.286 109.327L35.351 108.18L15.302 113.437L20.6555 93.896Z" fill="url(#paint1_linear_1607_1649)"/>
<path d="M48.3388 37.0742C47.1458 34.4227 45.8903 34.3692 44.7558 34.3227C43.8268 34.2827 42.7648 34.2857 41.7038 34.2857C40.6418 34.2857 38.9163 34.6852 37.4578 36.2777C35.9978 37.8717 31.8838 41.7237 31.8838 49.5582C31.8838 57.3927 37.5903 64.9647 38.3858 66.0282C39.1823 67.0897 49.4023 83.6817 65.5883 90.0647C79.0403 95.3692 81.7778 94.3142 84.6973 94.0482C87.6173 93.7832 94.1193 90.1972 95.4458 86.4787C96.7733 82.7607 96.7733 79.5737 96.3753 78.9077C95.9773 78.2442 94.9153 77.8457 93.3228 77.0497C91.7303 76.2537 83.9008 72.4007 82.4413 71.8692C80.9813 71.3382 79.9198 71.0732 78.8578 72.6677C77.7958 74.2597 74.7463 77.8457 73.8168 78.9077C72.8883 79.9722 71.9588 80.1047 70.3668 79.3082C68.7733 78.5092 63.6448 76.8297 57.5603 71.4052C52.8263 67.1842 49.6303 61.9717 48.7013 60.3772C47.7723 58.7852 48.6018 57.9222 49.4003 57.1287C50.1158 56.4152 50.9933 55.2692 51.7903 54.3397C52.5843 53.4097 52.8493 52.7462 53.3803 51.6842C53.9118 50.6212 53.6458 49.6912 53.2483 48.8947C52.8493 48.0982 49.7548 40.2227 48.3388 37.0742Z" fill="white"/>
</g>
<defs>
<linearGradient id="paint0_linear_1607_1649" x1="6180.54" y1="12414.5" x2="6180.54" y2="2.22607" gradientUnits="userSpaceOnUse">
<stop stop-color="#1FAF38"/>
<stop offset="1" stop-color="#60D669"/>
</linearGradient>
<linearGradient id="paint1_linear_1607_1649" x1="6400" y1="12857.4" x2="6400" y2="0" gradientUnits="userSpaceOnUse">
<stop stop-color="#F9F9F9"/>
<stop offset="1" stop-color="white"/>
</linearGradient>
<clipPath id="clip0_1607_1649">
<rect width="128" height="129" fill="white"/>
</clipPath>
</defs>
</svg>
